<svg xmlns="http://www.w3.org/2000/svg" xmlns:xlink="http://www.w3.org/1999/xlink" width="500" zoomAndPan="magnify" viewBox="0 0 375 374.999991" height="500" preserveAspectRatio="xMidYMid meet" version="1.0"><defs><g/><clipPath id="b63f4a5cf4"><path d="M 37.5 263.84375 L 337.535156 263.84375 L 337.535156 276.386719 L 37.5 276.386719 Z M 37.5 263.84375 " clip-rule="nonzero"/></clipPath><clipPath id="4dac3b1e0e"><path d="M 37.5 263.84375 L 40.210938 276.386719 L 337.5 264.523438 L 337.328125 263.84375 Z M 37.5 263.84375 " clip-rule="nonzero"/></clipPath></defs><g fill="#9c27b0" fill-opacity="1"><g transform="translate(98.261717, 175.36435)"><g><path d="M 47.515625 -55.4375 L 47.515625 -44.796875 L 30.796875 -44.796875 L 30.796875 0 L 18.3125 0 L 18.3125 -44.796875 L 1.59375 -44.796875 L 1.59375 -55.4375 Z M 47.515625 -55.4375 "/></g></g></g><g fill="#9c27b0" fill-opacity="1"><g transform="translate(147.37694, 175.36435)"><g><path d="M 21.6875 -8.3125 C 22.851562 -8.3125 23.96875 -8.335938 25.03125 -8.390625 C 26.101562 -8.453125 26.957031 -8.535156 27.59375 -8.640625 L 27.59375 -17.6875 C 27.113281 -17.789062 26.394531 -17.894531 25.4375 -18 C 24.476562 -18.101562 23.597656 -18.15625 22.796875 -18.15625 C 21.679688 -18.15625 20.628906 -18.085938 19.640625 -17.953125 C 18.648438 -17.828125 17.78125 -17.578125 17.03125 -17.203125 C 16.289062 -16.828125 15.707031 -16.316406 15.28125 -15.671875 C 14.851562 -15.035156 14.640625 -14.238281 14.640625 -13.28125 C 14.640625 -11.414062 15.265625 -10.117188 16.515625 -9.390625 C 17.773438 -8.671875 19.5 -8.3125 21.6875 -8.3125 Z M 20.71875 -43.203125 C 24.238281 -43.203125 27.171875 -42.800781 29.515625 -42 C 31.867188 -41.195312 33.75 -40.046875 35.15625 -38.546875 C 36.570312 -37.054688 37.570312 -35.242188 38.15625 -33.109375 C 38.75 -30.984375 39.046875 -28.613281 39.046875 -26 L 39.046875 -1.203125 C 37.335938 -0.828125 34.960938 -0.390625 31.921875 0.109375 C 28.878906 0.617188 25.195312 0.875 20.875 0.875 C 18.15625 0.875 15.6875 0.632812 13.46875 0.15625 C 11.257812 -0.320312 9.351562 -1.109375 7.75 -2.203125 C 6.15625 -3.296875 4.929688 -4.722656 4.078125 -6.484375 C 3.222656 -8.242188 2.796875 -10.398438 2.796875 -12.953125 C 2.796875 -15.410156 3.289062 -17.492188 4.28125 -19.203125 C 5.269531 -20.910156 6.585938 -22.269531 8.234375 -23.28125 C 9.890625 -24.289062 11.785156 -25.019531 13.921875 -25.46875 C 16.054688 -25.925781 18.269531 -26.15625 20.5625 -26.15625 C 22.101562 -26.15625 23.472656 -26.085938 24.671875 -25.953125 C 25.878906 -25.828125 26.851562 -25.65625 27.59375 -25.4375 L 27.59375 -26.5625 C 27.59375 -28.582031 26.976562 -30.207031 25.75 -31.4375 C 24.53125 -32.664062 22.398438 -33.28125 19.359375 -33.28125 C 17.328125 -33.28125 15.328125 -33.132812 13.359375 -32.84375 C 11.390625 -32.550781 9.679688 -32.132812 8.234375 -31.59375 L 6.71875 -41.203125 C 7.414062 -41.410156 8.28125 -41.632812 9.3125 -41.875 C 10.351562 -42.113281 11.488281 -42.328125 12.71875 -42.515625 C 13.945312 -42.703125 15.238281 -42.863281 16.59375 -43 C 17.957031 -43.132812 19.332031 -43.203125 20.71875 -43.203125 Z M 20.71875 -43.203125 "/></g></g></g><g fill="#9c27b0" fill-opacity="1"><g transform="translate(191.612644, 175.36435)"><g><path d="M 17.6875 -8.5625 C 19.863281 -8.5625 21.40625 -8.773438 22.3125 -9.203125 C 23.226562 -9.628906 23.6875 -10.457031 23.6875 -11.6875 C 23.6875 -12.644531 23.097656 -13.484375 21.921875 -14.203125 C 20.742188 -14.921875 18.957031 -15.734375 16.5625 -16.640625 C 14.695312 -17.335938 13.003906 -18.054688 11.484375 -18.796875 C 9.960938 -19.546875 8.664062 -20.441406 7.59375 -21.484375 C 6.53125 -22.523438 5.703125 -23.765625 5.109375 -25.203125 C 4.523438 -26.640625 4.234375 -28.375 4.234375 -30.40625 C 4.234375 -34.34375 5.703125 -37.457031 8.640625 -39.75 C 11.578125 -42.050781 15.601562 -43.203125 20.71875 -43.203125 C 23.28125 -43.203125 25.734375 -42.972656 28.078125 -42.515625 C 30.421875 -42.066406 32.289062 -41.578125 33.6875 -41.046875 L 31.59375 -31.765625 C 30.207031 -32.242188 28.703125 -32.664062 27.078125 -33.03125 C 25.453125 -33.40625 23.625 -33.59375 21.59375 -33.59375 C 17.863281 -33.59375 16 -32.554688 16 -30.484375 C 16 -30.003906 16.078125 -29.578125 16.234375 -29.203125 C 16.398438 -28.828125 16.722656 -28.460938 17.203125 -28.109375 C 17.679688 -27.765625 18.332031 -27.394531 19.15625 -27 C 19.988281 -26.601562 21.039062 -26.164062 22.3125 -25.6875 C 24.925781 -24.71875 27.085938 -23.765625 28.796875 -22.828125 C 30.503906 -21.898438 31.847656 -20.890625 32.828125 -19.796875 C 33.816406 -18.703125 34.507812 -17.488281 34.90625 -16.15625 C 35.3125 -14.820312 35.515625 -13.273438 35.515625 -11.515625 C 35.515625 -7.359375 33.953125 -4.210938 30.828125 -2.078125 C 27.710938 0.0546875 23.300781 1.125 17.59375 1.125 C 13.863281 1.125 10.757812 0.800781 8.28125 0.15625 C 5.800781 -0.476562 4.082031 -1.007812 3.125 -1.4375 L 5.125 -11.125 C 7.144531 -10.320312 9.222656 -9.691406 11.359375 -9.234375 C 13.492188 -8.785156 15.601562 -8.5625 17.6875 -8.5625 Z M 17.6875 -8.5625 "/></g></g></g><g fill="#9c27b0" fill-opacity="1"><g transform="translate(230.408879, 175.36435)"><g><path d="M 17.515625 -26.875 C 18.691406 -28.15625 19.90625 -29.488281 21.15625 -30.875 C 22.414062 -32.257812 23.628906 -33.632812 24.796875 -35 C 25.972656 -36.363281 27.082031 -37.65625 28.125 -38.875 C 29.164062 -40.101562 30.054688 -41.171875 30.796875 -42.078125 L 44.953125 -42.078125 C 42.128906 -38.828125 39.367188 -35.71875 36.671875 -32.75 C 33.984375 -29.789062 31.039062 -26.738281 27.84375 -23.59375 C 29.4375 -22.15625 31.085938 -20.4375 32.796875 -18.4375 C 34.503906 -16.4375 36.15625 -14.367188 37.75 -12.234375 C 39.351562 -10.109375 40.820312 -7.976562 42.15625 -5.84375 C 43.488281 -3.707031 44.609375 -1.757812 45.515625 0 L 31.84375 0 C 30.988281 -1.382812 30.015625 -2.914062 28.921875 -4.59375 C 27.828125 -6.28125 26.664062 -7.960938 25.4375 -9.640625 C 24.207031 -11.316406 22.910156 -12.925781 21.546875 -14.46875 C 20.191406 -16.019531 18.847656 -17.332031 17.515625 -18.40625 L 17.515625 0 L 5.59375 0 L 5.59375 -60.15625 L 17.515625 -62.078125 Z M 17.515625 -26.875 "/></g></g></g><g fill="#9c27b0" fill-opacity="1"><g transform="translate(52.101564, 251.114345)"><g><path d="M 21.125 -55.4375 C 22.082031 -53.675781 23.1875 -51.503906 24.4375 -48.921875 C 25.6875 -46.335938 26.992188 -43.535156 28.359375 -40.515625 C 29.722656 -37.503906 31.070312 -34.425781 32.40625 -31.28125 C 33.738281 -28.132812 34.988281 -25.175781 36.15625 -22.40625 C 37.332031 -25.175781 38.585938 -28.132812 39.921875 -31.28125 C 41.253906 -34.425781 42.597656 -37.503906 43.953125 -40.515625 C 45.316406 -43.535156 46.625 -46.335938 47.875 -48.921875 C 49.132812 -51.503906 50.242188 -53.675781 51.203125 -55.4375 L 62.5625 -55.4375 C 63.09375 -51.757812 63.582031 -47.640625 64.03125 -43.078125 C 64.488281 -38.515625 64.890625 -33.765625 65.234375 -28.828125 C 65.585938 -23.898438 65.910156 -18.957031 66.203125 -14 C 66.492188 -9.039062 66.742188 -4.375 66.953125 0 L 54.796875 0 C 54.640625 -5.382812 54.425781 -11.25 54.15625 -17.59375 C 53.894531 -23.945312 53.492188 -30.347656 52.953125 -36.796875 C 51.992188 -34.554688 50.925781 -32.078125 49.75 -29.359375 C 48.582031 -26.640625 47.425781 -23.921875 46.28125 -21.203125 C 45.132812 -18.484375 44.023438 -15.882812 42.953125 -13.40625 C 41.890625 -10.925781 40.984375 -8.804688 40.234375 -7.046875 L 31.515625 -7.046875 C 30.773438 -8.804688 29.867188 -10.925781 28.796875 -13.40625 C 27.734375 -15.882812 26.628906 -18.484375 25.484375 -21.203125 C 24.335938 -23.921875 23.175781 -26.640625 22 -29.359375 C 20.820312 -32.078125 19.753906 -34.554688 18.796875 -36.796875 C 18.265625 -30.347656 17.863281 -23.945312 17.59375 -17.59375 C 17.332031 -11.25 17.117188 -5.382812 16.953125 0 L 4.796875 0 C 5.015625 -4.375 5.269531 -9.039062 5.5625 -14 C 5.851562 -18.957031 6.171875 -23.898438 6.515625 -28.828125 C 6.867188 -33.765625 7.269531 -38.515625 7.71875 -43.078125 C 8.175781 -47.640625 8.671875 -51.757812 9.203125 -55.4375 Z M 21.125 -55.4375 "/></g></g></g><g fill="#9c27b0" fill-opacity="1"><g transform="translate(123.854595, 251.114345)"><g><path d="M 21.6875 -8.3125 C 22.851562 -8.3125 23.96875 -8.335938 25.03125 -8.390625 C 26.101562 -8.453125 26.957031 -8.535156 27.59375 -8.640625 L 27.59375 -17.6875 C 27.113281 -17.789062 26.394531 -17.894531 25.4375 -18 C 24.476562 -18.101562 23.597656 -18.15625 22.796875 -18.15625 C 21.679688 -18.15625 20.628906 -18.085938 19.640625 -17.953125 C 18.648438 -17.828125 17.78125 -17.578125 17.03125 -17.203125 C 16.289062 -16.828125 15.707031 -16.316406 15.28125 -15.671875 C 14.851562 -15.035156 14.640625 -14.238281 14.640625 -13.28125 C 14.640625 -11.414062 15.265625 -10.117188 16.515625 -9.390625 C 17.773438 -8.671875 19.5 -8.3125 21.6875 -8.3125 Z M 20.71875 -43.203125 C 24.238281 -43.203125 27.171875 -42.800781 29.515625 -42 C 31.867188 -41.195312 33.75 -40.046875 35.15625 -38.546875 C 36.570312 -37.054688 37.570312 -35.242188 38.15625 -33.109375 C 38.75 -30.984375 39.046875 -28.613281 39.046875 -26 L 39.046875 -1.203125 C 37.335938 -0.828125 34.960938 -0.390625 31.921875 0.109375 C 28.878906 0.617188 25.195312 0.875 20.875 0.875 C 18.15625 0.875 15.6875 0.632812 13.46875 0.15625 C 11.257812 -0.320312 9.351562 -1.109375 7.75 -2.203125 C 6.15625 -3.296875 4.929688 -4.722656 4.078125 -6.484375 C 3.222656 -8.242188 2.796875 -10.398438 2.796875 -12.953125 C 2.796875 -15.410156 3.289062 -17.492188 4.28125 -19.203125 C 5.269531 -20.910156 6.585938 -22.269531 8.234375 -23.28125 C 9.890625 -24.289062 11.785156 -25.019531 13.921875 -25.46875 C 16.054688 -25.925781 18.269531 -26.15625 20.5625 -26.15625 C 22.101562 -26.15625 23.472656 -26.085938 24.671875 -25.953125 C 25.878906 -25.828125 26.851562 -25.65625 27.59375 -25.4375 L 27.59375 -26.5625 C 27.59375 -28.582031 26.976562 -30.207031 25.75 -31.4375 C 24.53125 -32.664062 22.398438 -33.28125 19.359375 -33.28125 C 17.328125 -33.28125 15.328125 -33.132812 13.359375 -32.84375 C 11.390625 -32.550781 9.679688 -32.132812 8.234375 -31.59375 L 6.71875 -41.203125 C 7.414062 -41.410156 8.28125 -41.632812 9.3125 -41.875 C 10.351562 -42.113281 11.488281 -42.328125 12.71875 -42.515625 C 13.945312 -42.703125 15.238281 -42.863281 16.59375 -43 C 17.957031 -43.132812 19.332031 -43.203125 20.71875 -43.203125 Z M 20.71875 -43.203125 "/></g></g></g><g fill="#9c27b0" fill-opacity="1"><g transform="translate(168.090299, 251.114345)"><g><path d="M 17.6875 -8.5625 C 19.863281 -8.5625 21.40625 -8.773438 22.3125 -9.203125 C 23.226562 -9.628906 23.6875 -10.457031 23.6875 -11.6875 C 23.6875 -12.644531 23.097656 -13.484375 21.921875 -14.203125 C 20.742188 -14.921875 18.957031 -15.734375 16.5625 -16.640625 C 14.695312 -17.335938 13.003906 -18.054688 11.484375 -18.796875 C 9.960938 -19.546875 8.664062 -20.441406 7.59375 -21.484375 C 6.53125 -22.523438 5.703125 -23.765625 5.109375 -25.203125 C 4.523438 -26.640625 4.234375 -28.375 4.234375 -30.40625 C 4.234375 -34.34375 5.703125 -37.457031 8.640625 -39.75 C 11.578125 -42.050781 15.601562 -43.203125 20.71875 -43.203125 C 23.28125 -43.203125 25.734375 -42.972656 28.078125 -42.515625 C 30.421875 -42.066406 32.289062 -41.578125 33.6875 -41.046875 L 31.59375 -31.765625 C 30.207031 -32.242188 28.703125 -32.664062 27.078125 -33.03125 C 25.453125 -33.40625 23.625 -33.59375 21.59375 -33.59375 C 17.863281 -33.59375 16 -32.554688 16 -30.484375 C 16 -30.003906 16.078125 -29.578125 16.234375 -29.203125 C 16.398438 -28.828125 16.722656 -28.460938 17.203125 -28.109375 C 17.679688 -27.765625 18.332031 -27.394531 19.15625 -27 C 19.988281 -26.601562 21.039062 -26.164062 22.3125 -25.6875 C 24.925781 -24.71875 27.085938 -23.765625 28.796875 -22.828125 C 30.503906 -21.898438 31.847656 -20.890625 32.828125 -19.796875 C 33.816406 -18.703125 34.507812 -17.488281 34.90625 -16.15625 C 35.3125 -14.820312 35.515625 -13.273438 35.515625 -11.515625 C 35.515625 -7.359375 33.953125 -4.210938 30.828125 -2.078125 C 27.710938 0.0546875 23.300781 1.125 17.59375 1.125 C 13.863281 1.125 10.757812 0.800781 8.28125 0.15625 C 5.800781 -0.476562 4.082031 -1.007812 3.125 -1.4375 L 5.125 -11.125 C 7.144531 -10.320312 9.222656 -9.691406 11.359375 -9.234375 C 13.492188 -8.785156 15.601562 -8.5625 17.6875 -8.5625 Z M 17.6875 -8.5625 "/></g></g></g><g fill="#9c27b0" fill-opacity="1"><g transform="translate(206.886534, 251.114345)"><g><path d="M 5.203125 -52.5625 L 17.125 -54.484375 L 17.125 -42.078125 L 31.4375 -42.078125 L 31.4375 -32.15625 L 17.125 -32.15625 L 17.125 -17.359375 C 17.125 -14.847656 17.5625 -12.847656 18.4375 -11.359375 C 19.320312 -9.867188 21.097656 -9.125 23.765625 -9.125 C 25.046875 -9.125 26.363281 -9.242188 27.71875 -9.484375 C 29.082031 -9.722656 30.320312 -10.054688 31.4375 -10.484375 L 33.125 -1.203125 C 31.675781 -0.609375 30.070312 -0.101562 28.3125 0.3125 C 26.5625 0.738281 24.40625 0.953125 21.84375 0.953125 C 18.582031 0.953125 15.882812 0.515625 13.75 -0.359375 C 11.625 -1.242188 9.921875 -2.472656 8.640625 -4.046875 C 7.359375 -5.617188 6.460938 -7.523438 5.953125 -9.765625 C 5.453125 -12.003906 5.203125 -14.484375 5.203125 -17.203125 Z M 5.203125 -52.5625 "/></g></g></g><g fill="#9c27b0" fill-opacity="1"><g transform="translate(242.403088, 251.114345)"><g><path d="M 3.59375 -20.71875 C 3.59375 -24.445312 4.164062 -27.710938 5.3125 -30.515625 C 6.46875 -33.316406 7.976562 -35.648438 9.84375 -37.515625 C 11.707031 -39.378906 13.851562 -40.789062 16.28125 -41.75 C 18.707031 -42.71875 21.203125 -43.203125 23.765625 -43.203125 C 29.734375 -43.203125 34.453125 -41.375 37.921875 -37.71875 C 41.390625 -34.0625 43.125 -28.6875 43.125 -21.59375 C 43.125 -20.90625 43.09375 -20.144531 43.03125 -19.3125 C 42.976562 -18.488281 42.925781 -17.757812 42.875 -17.125 L 15.84375 -17.125 C 16.101562 -14.664062 17.242188 -12.71875 19.265625 -11.28125 C 21.296875 -9.84375 24.019531 -9.125 27.4375 -9.125 C 29.625 -9.125 31.769531 -9.320312 33.875 -9.71875 C 35.988281 -10.113281 37.710938 -10.609375 39.046875 -11.203125 L 40.640625 -1.515625 C 40.003906 -1.203125 39.148438 -0.882812 38.078125 -0.5625 C 37.015625 -0.238281 35.828125 0.0390625 34.515625 0.28125 C 33.210938 0.519531 31.8125 0.71875 30.3125 0.875 C 28.820312 1.039062 27.332031 1.125 25.84375 1.125 C 22.050781 1.125 18.753906 0.566406 15.953125 -0.546875 C 13.160156 -1.671875 10.84375 -3.207031 9 -5.15625 C 7.15625 -7.101562 5.789062 -9.410156 4.90625 -12.078125 C 4.03125 -14.742188 3.59375 -17.625 3.59375 -20.71875 Z M 31.59375 -25.28125 C 31.539062 -26.289062 31.367188 -27.273438 31.078125 -28.234375 C 30.785156 -29.203125 30.332031 -30.054688 29.71875 -30.796875 C 29.101562 -31.546875 28.328125 -32.160156 27.390625 -32.640625 C 26.460938 -33.117188 25.304688 -33.359375 23.921875 -33.359375 C 22.585938 -33.359375 21.441406 -33.128906 20.484375 -32.671875 C 19.523438 -32.222656 18.722656 -31.625 18.078125 -30.875 C 17.441406 -30.132812 16.945312 -29.269531 16.59375 -28.28125 C 16.25 -27.289062 16 -26.289062 15.84375 -25.28125 Z M 31.59375 -25.28125 "/></g></g></g><g fill="#9c27b0" fill-opacity="1"><g transform="translate(289.118554, 251.114345)"><g><path d="M 30.953125 -31.515625 C 29.890625 -31.785156 28.640625 -32.066406 27.203125 -32.359375 C 25.765625 -32.648438 24.21875 -32.796875 22.5625 -32.796875 C 21.8125 -32.796875 20.914062 -32.726562 19.875 -32.59375 C 18.832031 -32.46875 18.046875 -32.320312 17.515625 -32.15625 L 17.515625 0 L 5.59375 0 L 5.59375 -39.84375 C 7.726562 -40.582031 10.25 -41.285156 13.15625 -41.953125 C 16.0625 -42.617188 19.300781 -42.953125 22.875 -42.953125 C 23.519531 -42.953125 24.296875 -42.910156 25.203125 -42.828125 C 26.109375 -42.753906 27.015625 -42.648438 27.921875 -42.515625 C 28.828125 -42.378906 29.734375 -42.21875 30.640625 -42.03125 C 31.546875 -41.851562 32.316406 -41.628906 32.953125 -41.359375 Z M 30.953125 -31.515625 "/></g></g></g><g clip-path="url(#b63f4a5cf4)"><g clip-path="url(#4dac3b1e0e)"><path fill="#9c27b0" d="M 37.5 263.84375 L 337.484375 263.84375 L 337.484375 276.386719 L 37.5 276.386719 Z M 37.5 263.84375 " fill-opacity="1" fill-rule="nonzero"/></g></g></svg>